# xmcd
#
# Track frame offsets: 
#        150
#        21512
#        39096
#        54819
#        73734
#        93183
#        114255
#        134243
#        156896
#        179370
#        197023
#
# Disc length: 2972 seconds
#
# Revision: 7
# Processed by: cddbd v1.5.2PL0 Copyright (c) Steve Scherf et al.
# Submitted via: ExactAudioCopy v0.95b4
#
DISCID=900b9a0b
DTITLE=???? - My First Love
DYEAR=2005
DGENRE=Rock
TTITLE0=??????
TTITLE1=??????!
TTITLE2=?????
TTITLE3=Thank you
TTITLE4=???????
TTITLE5=??????
TTITLE6=I am a father
TTITLE7=??
TTITLE8=??
TTITLE9=?????? (album ver.)
TTITLE10=???????????
EXTD=YEAR: 2005
EXTT0=
EXTT1=
EXTT2=
EXTT3=
EXTT4=
EXTT5=
EXTT6=
EXTT7=
EXTT8=
EXTT9=
EXTT10=
PLAYORDER=
